<svg xmlns="http://www.w3.org/2000/svg"  viewBox="0 0 64 64" width="480px" height="480px"><path d="M 23.308594 10.947266 C 21.171594 10.947266 19.180281 12.097266 18.113281 13.947266 L 9.421875 29.001953 C 8.354875 30.851953 8.354875 33.149 9.421875 35 L 18.113281 50.052734 C 19.180281 51.903734 21.172547 53.052734 23.310547 53.052734 L 40.689453 53.052734 C 42.827453 53.052734 44.818719 51.902734 45.886719 50.052734 L 54.578125 34.998047 C 55.645125 33.148047 55.645125 30.851 54.578125 29 L 45.886719 13.947266 C 44.819719 12.096266 42.827453 10.947266 40.689453 10.947266 L 23.308594 10.947266 z M 23.310547 14.947266 L 40.691406 14.947266 C 41.403406 14.947266 42.066875 15.330266 42.421875 15.947266 L 51.113281 30.998047 C 51.468281 31.616047 51.468281 32.383 51.113281 33 L 42.421875 48.054688 C 42.066875 48.670687 41.402453 49.052734 40.689453 49.052734 L 23.308594 49.052734 C 22.596594 49.052734 21.933125 48.669734 21.578125 48.052734 L 12.886719 33.001953 C 12.531719 32.383953 12.531719 31.617 12.886719 31 L 21.578125 15.945312 C 21.933125 15.329312 22.597547 14.947266 23.310547 14.947266 z M 31.984375 19.994141 C 31.292375 19.994141 30.730828 20.205906 30.298828 20.628906 C 29.865828 21.050906 29.660688 21.578891 29.679688 22.212891 L 29.996094 34.060547 C 30.035094 35.386547 30.706672 36.050781 32.013672 36.050781 C 33.282672 36.050781 33.927312 35.3875 33.945312 34.0625 L 34.320312 22.242188 C 34.339312 21.608187 34.123875 21.074578 33.671875 20.642578 C 33.220875 20.209578 32.657375 19.994141 31.984375 19.994141 z M 32 38.691406 C 30.465 38.691406 29.492188 39.988844 29.492188 41.089844 C 29.492188 42.190844 30.432 43.488281 32 43.488281 C 33.568 43.488281 34.507812 42.260844 34.507812 41.089844 C 34.507813 39.918844 33.535 38.691406 32 38.691406 z"/></svg>