<svg fill="#000000" xmlns="http://www.w3.org/2000/svg"  viewBox="0 0 32 32" width="512px" height="512px"><path d="M 16.117188 3.0019531 A 4 4 0 0 0 12 7 L 8 7 C 6.338 7 5 8.338 5 10 L 5 11 C 5 12.662 6.338 14 8 14 L 24 14 C 25.662 14 27 12.662 27 11 L 27 10 C 27 8.338 25.662 7 24 7 L 20 7 A 4 4 0 0 0 16.117188 3.0019531 z M 15.941406 5 A 2 2 0 0 1 18 7 L 14 7 A 2 2 0 0 1 15.941406 5 z M 7 15 L 7 24 A 5 5 0 0 0 12 29 L 20 29 A 5 5 0 0 0 25 24 L 25 15 L 7 15 z M 13.029297 17 A 1 1 0 0 1 14 18 L 14 24 A 1 1 0 0 1 12 24 L 12 18 A 1 1 0 0 1 13.029297 17 z M 19.029297 17 A 1 1 0 0 1 20 18 L 20 24 A 1 1 0 0 1 18 24 L 18 18 A 1 1 0 0 1 19.029297 17 z"/></svg>