<svg fill="#000000" xmlns="http://www.w3.org/2000/svg"  viewBox="0 0 32 32" width="512px" height="512px"><path d="M 24.634766 3.0390625 A 3 3 0 0 0 22.558594 3.9179688 L 20.435547 6.0371094 A 1 1 0 0 0 20.433594 6.0390625 L 11.632812 14.839844 A 3 3 0 0 0 10.84375 16.234375 L 9.9667969 19.734375 A 2 2 0 0 0 11.900391 22.220703 A 2.027 2.027 0 0 0 12.394531 22.160156 L 15.894531 21.285156 A 3 3 0 0 0 17.289062 20.496094 L 26.089844 11.695312 A 1 1 0 0 0 26.091797 11.693359 L 28.212891 9.5722656 A 3 3 0 0 0 28.212891 5.3300781 L 26.800781 3.9179688 A 3 3 0 0 0 24.634766 3.0390625 z M 8 5 A 5.006 5.006 0 0 0 3 10 L 3 24 A 5.006 5.006 0 0 0 8 29 L 22 29 A 5.006 5.006 0 0 0 27 24 L 27 14.609375 A 1 1 0 0 0 25 14.609375 L 25 24 A 3 3 0 0 1 22 27 L 8 27 A 3 3 0 0 1 5 24 L 5 10 A 3 3 0 0 1 8 7 L 17.640625 7 A 1 1 0 0 0 17.640625 5 L 8 5 z M 21.142578 8.1582031 L 23.964844 10.980469 L 15.871094 19.078125 A 1.007 1.007 0 0 1 15.408203 19.341797 L 11.908203 20.216797 L 12.783203 16.716797 A 1 1 0 0 1 13.048828 16.251953 L 21.142578 8.1582031 z"/></svg>