<svg xmlns="http://www.w3.org/2000/svg"  viewBox="0 0 32 32" width="512px" height="512px"><path d="M 14.322266 3 L 12.324219 8 L 6 8 L 6 10 C 6 10.257037 5.67295 10.905545 5.1875 11.580078 C 4.944775 11.917344 4.6835839 12.262794 4.4570312 12.636719 C 4.2304786 13.010644 4 13.416832 4 14 L 4 24.5 C 4 25.230178 4.4061059 25.91589 5 26.417969 L 5 27.011719 L 5 27.023438 C 5 27.023438 4.99872 27.475265 5.2441406 27.955078 C 5.4895649 28.43489 6.1703195 29 7 29 L 11 29 L 11 27 L 7.0078125 27 C 7.0052682 26.991899 7 26.976562 7 26.976562 L 7 25 L 11 25 L 11 23 L 6 23 L 6 15 L 8 15 L 8 13 L 6.6367188 13 C 6.7025242 12.908736 6.7424338 12.845404 6.8125 12.748047 C 7.32705 12.03308 8 11.182963 8 10 L 16 10 C 16 11.168693 16.672348 11.986594 17.183594 12.708984 C 17.262494 12.820478 17.309359 12.895829 17.382812 13 L 10 13 L 10 15 L 18 15 L 18 17 L 20 17 L 20 14 C 20 13.416583 19.771868 13.012527 19.546875 12.632812 C 19.321882 12.2531 19.060783 11.898039 18.816406 11.552734 C 18.327652 10.862124 18 10.180307 18 10 L 18 8 L 14.476562 8 L 15.677734 5 L 20 5 L 20 3 L 14.322266 3 z M 16 19 C 14.35503 19 13 20.35503 13 22 L 13 27 C 13 28.093063 13.906937 29 15 29 L 26 29 C 27.093063 29 28 28.093063 28 27 L 28 22 C 28 20.35503 26.64497 19 25 19 L 16 19 z M 16 21 L 25 21 C 25.56503 21 26 21.43497 26 22 L 26 23 L 15 23 L 15 22 C 15 21.43497 15.43497 21 16 21 z M 15 25 L 20 25 A 1 1 0 0 0 21 26 A 1 1 0 0 0 22 25 L 23 25 A 1 1 0 0 0 24 26 A 1 1 0 0 0 25 25 L 26 25 L 26 27 L 15 27 L 15 25 z"/></svg>