<svg xmlns="http://www.w3.org/2000/svg"  viewBox="0 0 24 24" width="480px" height="480px"><path d="M 12 1.8125 L 11.46875 2.15625 L 0.96875 8.5625 L 2.03125 10.28125 L 3 9.6875 L 3 11.34375 L 5 11.71875 L 5 8.46875 L 12 4.15625 L 19 8.46875 L 19 11.71875 L 21 11.34375 L 21 9.6875 L 21.96875 10.28125 L 23.03125 8.5625 L 12.53125 2.15625 Z M 1.1875 12.03125 L 0.8125 13.96875 L 6.46875 15 L 0.8125 16.03125 L 1.1875 17.96875 L 23.1875 13.96875 L 22.8125 12.03125 L 12 14 Z M 21.53125 15.71875 L 15.96875 16.75 L 22.8125 17.96875 L 23.1875 16.03125 Z M 5 18.28125 L 3 18.65625 L 3 22 L 21 22 L 21 18.625 L 19 18.28125 L 19 20 L 5 20 Z"/></svg>