<svg xmlns="http://www.w3.org/2000/svg"  viewBox="0 0 32 32" width="512px" height="512px"><path d="M30.707 23.293l-5.5859-5.586a3.0025 3.0025 0 00-4.2422 0L18.8058 19.78l-4.799-4.3192a2.9944 2.9944 0 00-4.0136 0L1.3311 23.2568A1 1 0 002 25H30a1 1 0 00.707-1.707zM16 23H4.6064l6.7247-6.0527a.9965.9965 0 011.3378 0l5.4607 4.915.0032.0049.0084.0055L19.3936 23zm6.3835 0l-2.0891-1.88 1.9986-1.9986a1 1 0 011.414 0L27.5859 23zM27 11a3 3 0 10-3-3A3.0033 3.0033 0 0027 11zm0-4a1 1 0 11-1 1A1.0006 1.0006 0 0127 7z"/></svg>