<?xml version="1.0" encoding="UTF-8"?>
<svg id="Layer_1" data-name="Layer 1" xmlns="http://www.w3.org/2000/svg" viewBox="0 0 435.53 444.24">
  <defs>
    <style>
      .cls-1 {
        fill: #1a1a1a;
      }
    </style>
  </defs>
  <path class="cls-1" d="m155.07,409.4h125.4c-13.1,20.89-36.28,34.84-62.7,34.84s-49.59-13.95-62.7-34.84Zm257.19-158.7c2.39,3.57,23.27,36.43,23.27,89.01,0,19.24-15.6,34.84-34.84,34.84H34.84c-19.24,0-34.84-15.6-34.84-34.84,0-52.59,20.89-85.44,23.27-89.01,3.61-5.41,8.49-10.09,14.56-12.39,30.13-11.45,32.79-73.69,34.67-91.61,5.29-50.31,32.51-97.06,94.08-116.57C176.65,13.28,193.96,0,217.77,0s41.18,13.34,51.24,30.23c37.83,10.44,89.97,50.07,94.02,116.47,1.32,21.63,5.79,79.1,34.67,91.61,6.09,2.64,10.96,6.98,14.56,12.39Z"/>
</svg>