<svg xmlns="http://www.w3.org/2000/svg"  viewBox="0 0 72 72" width="512px" height="512px"><path d="M 18 13 C 13.04 13 9 17.04 9 22 L 9 38 C 9 42.218 11.927516 45.771141 15.853516 46.744141 C 15.902516 46.756141 15.951 46.768297 16 46.779297 L 16 33 C 16 25.83 21.83 20 29 20 L 50.779297 20 C 50.767297 19.946 50.754234 19.893844 50.740234 19.839844 C 49.762234 15.920844 46.213 13 42 13 L 18 13 z M 29 24 C 24.037 24 20 28.038 20 33 L 20 49 C 20 53.962 24.037 58 29 58 L 53 58 C 57.963 58 62 53.962 62 49 L 62 33 C 62 28.038 57.963 24 53 24 L 29 24 z M 34 34 C 35.657 34 37 35.343 37 37 C 37 38.657 35.657 40 34 40 C 32.343 40 31 38.657 31 37 C 31 35.343 32.343 34 34 34 z M 46.140625 41.001953 C 46.845625 41.000703 47.549375 41.25 48.109375 41.75 L 54 47.050781 L 54 49 C 54 49.55 53.55 50 53 50 L 29 50 C 28.45 50 28 49.55 28 49 L 28 47.259766 L 31.75 44.029297 C 32.85 43.079297 34.470312 43.079531 35.570312 44.019531 L 38.699219 46.699219 L 44.169922 41.759766 C 44.729922 41.254766 45.435625 41.003203 46.140625 41.001953 z"/></svg>