<?xml version="1.0" encoding="UTF-8"?>
<svg id="Layer_1" data-name="Layer 1" xmlns="http://www.w3.org/2000/svg" viewBox="0 0 22.15 32">
  <g id="ac913317-2972-4f38-99ee-b1ea6f04c446">
    <g id="bfcebbe4-b54d-4f38-ac80-6c3cb14de3a9">
      <path d="m11.08,0C5.07-.04.15,4.75,0,10.75v.04c0,10.5,10.3,20.64,10.74,21.07.09.09.21.14.33.14.13,0,.25-.05.34-.14.44-.43,10.74-10.57,10.74-21.07v-.05C22,4.74,17.08-.03,11.08,0Zm-.01,18.6c-4.16,0-7.52-3.37-7.52-7.53,0-4.16,3.37-7.52,7.53-7.52,4.16,0,7.52,3.37,7.52,7.53,0,4.16-3.37,7.52-7.53,7.52,0,0,0,0,0,0Z"/>
    </g>
  </g>
</svg>