<svg fill="#1A1A1A" xmlns="http://www.w3.org/2000/svg"  viewBox="0 0 48 48" width="512px" height="512px"><path d="M 20 3 A 17 17 0 1 0 26.986328 35.476562 L 34.140625 42.630859 A 6 6 0 0 0 44.380859 38.380859 A 5.977 5.977 0 0 0 42.630859 34.140625 L 36.240234 27.75 L 35.484375 26.994141 A 17 17 0 0 0 37 20 A 17.019 17.019 0 0 0 20 3 z M 19.376953 5.0136719 A 15 15 0 0 1 19.675781 5.015625 A 15 15 0 0 0 18.966797 5.0507812 A 15 15 0 0 1 19.376953 5.0136719 z M 20.740234 5.0234375 A 15 15 0 0 1 21.53125 5.0976562 A 15 15 0 0 0 20.740234 5.0234375 z M 18.175781 5.1230469 A 15 15 0 0 0 17.466797 5.2304688 A 15 15 0 0 1 18.175781 5.1230469 z M 22.236328 5.1738281 A 15 15 0 0 1 22.992188 5.3203125 A 15 15 0 0 0 22.236328 5.1738281 z M 16.710938 5.3769531 A 15 15 0 0 0 16.001953 5.5585938 A 15 15 0 0 1 16.710938 5.3769531 z M 23.705078 5.4707031 A 15 15 0 0 1 24.451172 5.6953125 A 15 15 0 0 0 23.705078 5.4707031 z M 15.263672 5.78125 A 15 15 0 0 0 14.591797 6.0253906 A 15 15 0 0 1 15.263672 5.78125 z M 25.136719 5.9140625 A 15 15 0 0 1 25.867188 6.2148438 A 15 15 0 0 0 25.136719 5.9140625 z M 13.859375 6.328125 A 15 15 0 0 0 13.222656 6.6367188 A 15 15 0 0 1 13.859375 6.328125 z M 26.513672 6.4941406 A 15 15 0 0 1 27.183594 6.8535156 A 15 15 0 0 0 26.513672 6.4941406 z M 12.537109 7.0019531 A 15 15 0 0 0 11.90625 7.3886719 A 15 15 0 0 1 12.537109 7.0019531 z M 27.845703 7.2226562 A 15 15 0 0 1 28.441406 7.6230469 A 15 15 0 0 0 27.845703 7.2226562 z M 11.279297 7.8105469 A 15 15 0 0 0 10.691406 8.2578125 A 15 15 0 0 1 11.279297 7.8105469 z M 29.070312 8.0605469 A 15 15 0 0 1 29.650391 8.5410156 A 15 15 0 0 0 29.070312 8.0605469 z M 10.105469 8.7421875 A 15 15 0 0 0 9.5585938 9.2519531 A 15 15 0 0 1 10.105469 8.7421875 z M 30.226562 9.0332031 A 15 15 0 0 1 30.728516 9.5429688 A 15 15 0 0 0 30.226562 9.0332031 z M 9.0351562 9.7832031 A 15 15 0 0 0 8.5410156 10.345703 A 15 15 0 0 1 9.0351562 9.7832031 z M 31.267578 10.107422 A 15 15 0 0 1 31.726562 10.675781 A 15 15 0 0 0 31.267578 10.107422 z M 8.0683594 10.929688 A 15 15 0 0 0 7.6347656 11.535156 A 15 15 0 0 1 8.0683594 10.929688 z M 32.197266 11.277344 A 15 15 0 0 1 32.625 11.935547 A 15 15 0 0 0 32.197266 11.277344 z M 7.21875 12.171875 A 15 15 0 0 0 6.8554688 12.806641 A 15 15 0 0 1 7.21875 12.171875 z M 32.998047 12.527344 A 15 15 0 0 1 33.373047 13.248047 A 15 15 0 0 0 32.998047 12.527344 z M 6.5019531 13.486328 A 15 15 0 0 0 6.1992188 14.162109 A 15 15 0 0 1 6.5019531 13.486328 z M 33.683594 13.873047 A 15 15 0 0 1 33.949219 14.533203 A 15 15 0 0 0 33.683594 13.873047 z M 5.9238281 14.849609 A 15 15 0 0 0 5.6777344 15.591797 A 15 15 0 0 1 5.9238281 14.849609 z M 34.234375 15.289062 A 15 15 0 0 1 34.419922 15.935547 A 15 15 0 0 0 34.234375 15.289062 z M 5.4804688 16.285156 A 15 15 0 0 0 5.3125 17.033203 A 15 15 0 0 1 5.4804688 16.285156 z M 34.630859 16.722656 A 15 15 0 0 1 34.761719 17.443359 A 15 15 0 0 0 34.630859 16.722656 z M 5.1816406 17.751953 A 15 15 0 0 0 5.0898438 18.505859 A 15 15 0 0 1 5.1816406 17.751953 z M 34.884766 18.1875 A 15 15 0 0 1 34.943359 18.929688 A 15 15 0 0 0 34.884766 18.1875 z M 5.03125 19.251953 A 15 15 0 0 0 5.015625 20 A 15 15 0 0 1 5.03125 19.251953 z M 34.990234 19.703125 A 15 15 0 0 1 35 20 A 15.017 15.017 0 0 1 34.974609 20.5 A 15 15 0 0 0 34.990234 19.703125 z M 5.03125 20.748047 A 15 15 0 0 0 5.0898438 21.494141 A 15 15 0 0 1 5.03125 20.748047 z M 34.933594 21.294922 A 15.017 15.017 0 0 1 34.851562 21.972656 A 15 15 0 0 0 34.933594 21.294922 z M 5.1816406 22.248047 A 15 15 0 0 0 5.3125 22.966797 A 15 15 0 0 1 5.1816406 22.248047 z M 34.726562 22.796875 A 15.017 15.017 0 0 1 34.591797 23.396484 A 15 15 0 0 0 34.726562 22.796875 z M 5.4804688 23.714844 A 15 15 0 0 0 5.6777344 24.408203 A 15 15 0 0 1 5.4804688 23.714844 z M 34.367188 24.273438 A 15.017 15.017 0 0 1 34.191406 24.800781 A 15 15 0 0 0 34.367188 24.273438 z M 5.9238281 25.150391 A 15 15 0 0 0 6.1992188 25.837891 A 15 15 0 0 1 5.9238281 25.150391 z M 33.861328 25.701172 A 15.017 15.017 0 0 1 33.650391 26.173828 A 15 15 0 0 0 33.861328 25.701172 z M 6.5019531 26.513672 A 15 15 0 0 0 6.8554688 27.193359 A 15 15 0 0 1 6.5019531 26.513672 z M 33.220703 27.060547 A 15.017 15.017 0 0 1 32.972656 27.492188 A 15 15 0 0 0 33.220703 27.060547 z M 7.21875 27.828125 A 15 15 0 0 0 7.6347656 28.464844 A 15 15 0 0 1 7.21875 27.828125 z M 32.4375 28.363281 A 15.017 15.017 0 0 1 32.1875 28.712891 A 15 15 0 0 0 32.4375 28.363281 z M 8.0683594 29.070312 A 15 15 0 0 0 8.5410156 29.654297 A 15 15 0 0 1 8.0683594 29.070312 z M 31.527344 29.576172 A 15.017 15.017 0 0 1 31.269531 29.871094 A 15 15 0 0 0 31.527344 29.576172 z M 9.0351562 30.216797 A 15 15 0 0 0 9.5585938 30.748047 A 15 15 0 0 1 9.0351562 30.216797 z M 30.521484 30.673828 A 15.017 15.017 0 0 1 30.216797 30.957031 A 15 15 0 0 0 30.521484 30.673828 z M 10.105469 31.257812 A 15 15 0 0 0 10.691406 31.742188 A 15 15 0 0 1 10.105469 31.257812 z M 29.392578 31.679688 A 15.017 15.017 0 0 1 29.082031 31.914062 A 15 15 0 0 0 29.392578 31.679688 z M 11.279297 32.189453 A 15 15 0 0 0 11.90625 32.611328 A 15 15 0 0 1 11.279297 32.189453 z M 28.189453 32.550781 A 15.017 15.017 0 0 1 27.822266 32.777344 A 15 15 0 0 0 28.189453 32.550781 z M 12.537109 32.998047 A 15 15 0 0 0 13.222656 33.363281 A 15 15 0 0 1 12.537109 32.998047 z M 26.890625 33.308594 A 15.017 15.017 0 0 1 26.507812 33.494141 A 15 15 0 0 0 26.890625 33.308594 z M 13.859375 33.671875 A 15 15 0 0 0 14.591797 33.974609 A 15 15 0 0 1 13.859375 33.671875 z M 25.550781 33.921875 A 15.017 15.017 0 0 1 25.064453 34.099609 A 15 15 0 0 0 25.550781 33.921875 z M 15.263672 34.21875 A 15 15 0 0 0 16.001953 34.441406 A 15 15 0 0 1 15.263672 34.21875 z M 24.146484 34.402344 A 15.017 15.017 0 0 1 23.59375 34.544922 A 15 15 0 0 0 24.146484 34.402344 z M 16.710938 34.623047 A 15 15 0 0 0 17.466797 34.769531 A 15 15 0 0 1 16.710938 34.623047 z M 22.714844 34.742188 A 15.017 15.017 0 0 1 22.080078 34.837891 A 15 15 0 0 0 22.714844 34.742188 z M 18.175781 34.876953 A 15 15 0 0 0 18.966797 34.949219 A 15 15 0 0 1 18.175781 34.876953 z M 21.228516 34.939453 A 15.017 15.017 0 0 1 20 35 A 15 15 0 0 0 21.228516 34.939453 z"/></svg>