<svg fill="#000000" xmlns="http://www.w3.org/2000/svg"  viewBox="0 0 24 24" width="100px" height="100px"><path d="M21.4087524,18.5899658l-2.7991333-2.7991333c2.1872559-3.4754028,1.776123-8.1297607-1.246582-11.1541138	c-0.0009766,0-0.0009766,0-0.0009766,0C15.6628418,2.9365234,13.4025879,2,10.998291,2S6.3342285,2.9365234,4.6350098,4.6367188	c-1.7001953,1.6992188-2.6362305,3.9599609-2.6362305,6.3642578c0,2.4033203,0.9360352,4.6640625,2.6357422,6.3632813	C6.3342285,19.0644531,8.5944824,20,10.998291,20c1.7242432,0,3.3704224-0.4885864,4.7926636-1.3878784l2.7978516,2.7978516	C18.9787598,21.7999878,19.4887695,22,19.9987793,22s1.0200195-0.2000122,1.4099731-0.5900269	C22.1987915,20.6300049,22.1987915,19.3699951,21.4087524,18.5899658z M7.4631348,14.5361328	c-0.9443359-0.9443359-1.4643555-2.2001953-1.4643555-3.5351563c0-1.3359375,0.5200195-2.5917969,1.4648438-3.5361328	C8.4074707,6.5205078,9.6628418,6,10.998291,6c1.3359375,0,2.5913086,0.5205078,3.534668,1.4648438	c0.0009766,0,0.0009766,0,0.0009766,0c1.9492188,1.9492188,1.9492188,5.1220703,0,7.0712891	C13.5895996,15.4804688,12.3342285,16,10.998291,16C9.6628418,16,8.4074707,15.4804688,7.4631348,14.5361328z"/></svg>