<svg fill="#000000" xmlns="http://www.w3.org/2000/svg"  viewBox="0 0 32 32" width="512px" height="512px"><path d="M 15.410156 3 A 2.8 2.8 0 0 0 12.689453 5.140625 A 0.81 0.81 0 0 1 12.189453 5.6894531 C 11.919453 5.7894531 11.660156 5.8997656 11.410156 6.0097656 A 0.8 0.8 0 0 1 10.660156 5.9707031 A 2.828 2.828 0 0 0 7.2207031 6.390625 L 6.390625 7.2207031 A 2.828 2.828 0 0 0 5.9707031 10.660156 A 0.8 0.8 0 0 1 6.0097656 11.410156 C 5.8997656 11.660156 5.7894531 11.919453 5.6894531 12.189453 A 0.805 0.805 0 0 1 5.1308594 12.689453 A 2.8 2.8 0 0 0 3 15.410156 L 3 16.589844 A 2.8 2.8 0 0 0 5.140625 19.310547 A 0.81 0.81 0 0 1 5.6894531 19.810547 C 5.7894531 20.080547 5.8997656 20.339609 6.0097656 20.599609 A 0.8 0.8 0 0 1 5.9707031 21.349609 A 2.815 2.815 0 0 0 6.390625 24.779297 L 7.2207031 25.609375 A 2.826 2.826 0 0 0 10.660156 26.029297 A 0.8 0.8 0 0 1 11.410156 25.990234 C 11.660156 26.110234 11.919453 26.210547 12.189453 26.310547 A 0.805 0.805 0 0 1 12.689453 26.869141 A 2.8 2.8 0 0 0 15.410156 29 L 16.589844 29 A 2.8 2.8 0 0 0 19.310547 26.869141 A 0.805 0.805 0 0 1 19.810547 26.310547 C 20.080547 26.210547 20.339609 26.100234 20.599609 25.990234 A 0.779 0.779 0 0 1 21.339844 26.029297 A 2.812 2.812 0 0 0 24.779297 25.609375 L 25.609375 24.779297 A 2.828 2.828 0 0 0 26.029297 21.339844 A 0.8 0.8 0 0 1 25.990234 20.589844 C 26.100234 20.339844 26.210547 20.080547 26.310547 19.810547 A 0.805 0.805 0 0 1 26.869141 19.310547 A 2.8 2.8 0 0 0 29 16.589844 L 29 15.410156 A 2.8 2.8 0 0 0 26.859375 12.689453 A 0.81 0.81 0 0 1 26.310547 12.189453 C 26.210547 11.919453 26.100234 11.660391 25.990234 11.400391 A 0.8 0.8 0 0 1 26.029297 10.650391 A 2.815 2.815 0 0 0 25.609375 7.2207031 L 24.779297 6.390625 A 2.828 2.828 0 0 0 21.339844 5.9707031 A 0.78 0.78 0 0 1 20.599609 6.0097656 C 20.339609 5.8997656 20.080547 5.7894531 19.810547 5.6894531 A 0.805 0.805 0 0 1 19.310547 5.1308594 A 2.8 2.8 0 0 0 16.589844 3 L 15.410156 3 z M 15.708984 9.0058594 A 7 7 0 0 1 23 16 A 7.008 7.008 0 0 1 16 23 A 7 7 0 0 1 15.708984 9.0058594 z M 16 11 A 5 5 0 0 0 16 21 A 5 5 0 0 0 16 11 z"/></svg>