<svg fill="#1A1A1A" xmlns="http://www.w3.org/2000/svg"  viewBox="0 0 72 72" width="512px" height="512px"><path d="M50,61c-0.731,0-1.464-0.2-2.112-0.604L36,53.004l-11.888,7.393c-1.356,0.847-3.088,0.799-4.401-0.116	c-1.312-0.916-1.952-2.524-1.628-4.091l2.923-14.118l-10.631-9.246c-1.203-1.047-1.67-2.708-1.188-4.228	c0.481-1.52,1.819-2.608,3.406-2.771l14.115-1.442L32.33,11.41C32.964,9.947,34.405,9,36,9s3.036,0.947,3.67,2.41l5.621,12.975	l14.115,1.442c1.587,0.162,2.925,1.251,3.406,2.771c0.482,1.52,0.016,3.181-1.188,4.228l-10.631,9.246l2.923,14.118	c0.324,1.566-0.316,3.175-1.628,4.091C51.604,60.759,50.802,61,50,61z"/></svg>