<svg fill="#000000" xmlns="http://www.w3.org/2000/svg"  viewBox="0 0 24 24" width="512px" height="512px"><path d="M 12.021484 1.25 A 0.75 0.75 0 0 0 11.25 2 L 11.25 3.2929688 A 8.75 8.75 0 0 0 3.2929688 11.25 L 2 11.25 A 0.75 0.75 0 0 0 2 12.75 L 3.2871094 12.75 A 8.75 8.75 0 0 0 11.25 20.712891 L 11.25 22 A 0.75 0.75 0 0 0 12 22.75 A 0.75 0.75 0 0 0 12.75 22 L 12.75 20.710938 A 8.76 8.76 0 0 0 20.710938 12.75 L 22 12.75 A 0.75 0.75 0 0 0 22 11.25 L 20.708984 11.25 A 8.75 8.75 0 0 0 12.75 3.2910156 L 12.75 2 A 0.75 0.75 0 0 0 12.021484 1.25 z M 12 4.75 A 7.258 7.258 0 0 1 19.25 12 A 7.25 7.25 0 1 1 12 4.75 z M 12 6.5 A 5.5 5.5 0 0 0 12 17.5 A 5.5 5.5 0 0 0 12 6.5 z"/></svg>