<?xml version="1.0" encoding="UTF-8"?>
<svg id="Layer_1" data-name="Layer 1" xmlns="http://www.w3.org/2000/svg" viewBox="0 0 313.13 335.04">
  <path d="m1.04,108.85c-.35-.35-.7-.7-1.04-1.04,1.45-6.34,2.91-12.69,4.36-19.03.25-.38.49-.75.74-1.13l-.09.04c2.39-1.66,5.32-8.62,4.72-11.32-.06-.26-.47-.43-.72-.65.31-.67.62-1.34.92-2.01,1.99-2.87,4-5.71,5.9-8.64.12-.19-.62-.93-.95-1.42.35-.65.69-1.3,1.04-1.95,3.1-.05,2.05-2.38,2.22-4.04.93-1.32,1.85-2.64,2.78-3.96.73-1.04,1.46-2.09,2.19-3.13.24-.3.48-.6.71-.9.76-1,1.51-2.01,2.27-3.01l-.04.03c3.49.53,3.19-1.83,3.08-4.05.69-.94,1.38-1.88,2.07-2.81,2.67-2.68,5.33-5.36,8-8.03.61-.35,1.22-.71,1.83-1.06,1.01-.77,2.02-1.53,3.04-2.3.64-.57,1.29-1.14,1.93-1.71,2.21.12,4.59.46,4.1-3.05l-.04.06,1.1-.79c.6-.41,1.2-.81,1.8-1.22.4-.26.8-.52,1.2-.78.29-.12.59-.18.9-.19,1-.76,2.01-1.52,3.01-2.28.71-.54,1.42-1.08,2.13-1.62.26-.05.53-.09.79-.12,3.45.09,7.1.56,8.2-4.08.31-.36.62-.72.94-1.08,1.33-.31,2.65-.62,3.98-.94,1.7,1.87,2.67,1.41,3.03-.95.35-.36.69-.73,1.04-1.09,2.65-.63,5.3-1.27,7.95-1.9.68-.24,1.37-.49,2.05-.73,1.98-.42,3.97-.84,5.95-1.27.7-.24,1.4-.49,2.11-.73l-.11-.33h3.09c.34-.27.67-.54,1.01-.81,3.32-.46,6.65-.91,9.97-1.37,3.94-.12,7.88-.34,11.82-.35,19.74-.04,39.48-.05,59.22.01,3.63.01,7.26.38,10.89.59,2,2.99,4.44,2.86,7.11.98.65.09,1.29.19,1.94.28,1.34,3.06,1.09,5.3-2.03,7.54-7.22,5.19-14.24,10.69-21.04,16.43-4.64,3.92-9.75,5.01-15.6,4.94-14.6-.19-29.19-.08-43.79-.04-1.97,0-4.68-.89-4.54,2.74-.34.38-.68.77-1.02,1.15l-.5.04-.48-.11c-2.7-2.63-7.78-2.17-10.99,1.01-3.31.73-6.63,1.47-9.94,2.2-2.29.26-4.63.28-6.85.82-21.76,5.33-40.98,15.32-57.58,30.57-8.44,7.75-15.52,16.29-20.54,26.56-1.75,4.02-3.49,8.03-5.24,12.05v-.02Z" style="fill: #fbb03b;"/>
  <path d="m284.41,271.78c-5.74,14.69-11.64,29.31-17.18,44.07-4.11,10.94-15.45,18.89-25.69,19.18-7.13.2-12.64-2.78-18.35-5.99-2.39-1.97-4.77-3.94-7.16-5.91l-.4-.09c-2.51-2.42-5.03-4.85-7.54-7.27,16.81.19,25.53-5.29,30.09-18.91.93-2.04,1.86-4.08,2.78-6.13,1.97,2.49,4.09,2.14,6.34.38,9.35-7.33,18.69-14.67,28.07-21.96,4.53-3.51,9.14-6.92,13.71-10.37-.65,2.31-1.29,4.62-1.94,6.93-.25.36-.49.71-.74,1.07-.42,1.31-.84,2.62-1.26,3.93-.25.36-.5.71-.75,1.07h.02Z" style="fill: #f26326;"/>
  <path d="m246.18,170.81v7.99c-2.03,5.32-4.07,10.64-6.1,15.96-2.44,3.22-4.88,6.45-7.33,9.66-.3.39-.64.92-1.05,1.01-7.4,1.76-13.66,7.41-21.89,6.43-2.13-.25-4.32-.1-6.48-.13-.53-.3-1.03-.73-1.6-.88-9.56-2.51-17.32-7.55-22.67-16.01,3.09-1.04,6.48-1.57,9.23-3.19,16.09-9.5,32.08-19.17,47.96-29.02,1.89-1.17,2.9-3.77,4.31-5.7.88,1.62,1.76,3.23,2.64,4.85.99,3.01,1.98,6.02,2.98,9.03h0Z" style="fill: #f57a2d;"/>
  <path d="m156.19,52.96c1.65-.42,3.29-.85,4.94-1.27.69-.28,1.37-.56,2.06-.84,3.32-.72,6.63-1.44,9.95-2.16.68-.24,1.37-.48,2.05-.73.65-.09,1.3-.18,1.94-.27,2.92,1.75,5.18.78,7.06-1.73,2.02-.11,4.04-.22,6.05-.33l-.09.33c.41.26.81.53,1.22.79.3,0,.57.05.84.19.38.28.75.55,1.13.83.66.9,1.32,1.8,1.98,2.7.55,1.72-3.11,4.02.72,5.3.05.68.09,1.37.14,2.05-.31.4-.62.8-.93,1.19l-.21,2.81c-.24.68-.48,1.37-.72,2.05-.07.26-.1.53-.08.81v1.27c-.02.31-.07.6-.17.9-.27.4-.55.79-.82,1.19-.06,1.27-.13,2.54-.19,3.81-.27.39-.54.77-.81,1.16-.02,1.6-.04,3.2-.06,4.8-.27.33-.54.66-.81.99-.06.68-.13,1.35-.19,2.03-.31.4-.62.8-.93,1.2-.07.6-.14,1.2-.21,1.8-2.43.24-5.01,1.14-7.26.62-17.02-3.93-33.98-8.12-50.95-12.27-6.15-1.5-12.28-3.1-18.42-4.65-.03-.59-.07-1.17-.1-1.76,3.64-.98,7.36-1.75,10.91-3,2.77-.98,5.33-2.55,7.98-3.86.62-.12,1.25-.24,1.87-.36,1.37,1.86,1.85.91,2.13-.67,1.93-.5,3.87-1.01,5.8-1.51,3.7,1.55,11.31-.26,14.2-3.37l-.02-.04Z" style="fill: #fbb03b;"/>
  <path d="m115.25,268.68c2.94.03,5.87.06,8.81.08h1.26c.31.01.6.07.89.16.4.27.79.55,1.19.82,2.34.91,4.95,1.44,6.98,2.82,5.78,3.92,6.31,9.95,5.83,16.25-.32.39-.64.78-.96,1.17,0,.31.07.59.25.84-.81,1.34-1.62,2.68-2.43,4.01-.28.37-.55.74-.83,1.11-2.33,1.66-4.65,3.32-6.98,4.98-1.53-.37-3.05-1.05-4.58-1.07-12.11-.15-24.26.18-36-3.71-.68-.23-1.68.51-2.53.8-.32-.1-.64-.2-.96-.3-1.89-2.68-3.35-2.97-4.99-1-.35-.24-.7-.48-1.04-.72-1.69-1.34-3.3-2.8-5.09-3.99-1.53-1.02-3.26-1.73-5.92-3.1,2.4-1.44,3.69-2.37,5.11-3.03,9.87-4.63,19.78-9.16,29.62-13.85,1.29-.61,2.22-1.98,3.32-3,1.98.24,3.96.48,5.94.73h3.12,0Z" style="fill: #fbb03b;"/>
  <path d="m240.56,156.93c-1.42,1.94-2.42,4.53-4.31,5.7-15.88,9.85-31.87,19.52-47.96,29.02-2.75,1.62-6.14,2.16-9.23,3.19-1.37-2.68-2.74-5.36-4.11-8.04-2.56-4.35-3.21-9.06-2.6-14,3.05,1.12,5.54,1.94,9.04-.32,13-8.4,26.48-16.05,39.63-24.23,1.84-1.15,2.82-3.68,4.2-5.57,2.64,1.38,5.28,2.75,7.93,4.13,1.2,1.07,2.24,2.47,3.63,3.13,3.07,1.47,4.06,3.82,3.78,6.98h0Z" style="fill: #f5802e;"/>
  <path d="m289.1,258.78c-4.57,3.45-9.19,6.85-13.71,10.37-9.38,7.29-18.73,14.63-28.07,21.96-2.25,1.77-4.37,2.12-6.34-.38.07-.32.19-.63.35-.93,2-.76,3.73-1.64,1.68-4.08,3.69-8.65,7.38-17.3,11.07-25.96,1.65-.08,3.7.45,4.87-.33,4.37-2.94,8.47-6.3,12.64-9.53,9.49-7.35,18.97-14.73,28.46-22.1-2.29,7.31-4.58,14.63-6.87,21.94-.23.34-.47.68-.7,1.02-.76,2.34-1.52,4.67-2.29,7.01-.23.36-.46.71-.69,1.07l-.39-.08v.02Z" style="fill: #f36a28;"/>
  <path d="m112.04,116.81c1.32-2.33,2.64-4.67,3.95-7,5.13-7.01,10.25-14.02,15.38-21.02,5.96,1.34,11.91,2.67,17.87,4.01,1.65,3.01,3.31,6.01,4.96,9.02.35,2.33.7,4.66,1.04,6.99-2.57,1.04-5.37,1.73-7.68,3.19-12.29,7.77-24.43,15.76-36.68,23.59-1.61,1.03-3.58,1.52-5.38,2.25,0-.64-.16-1.33.03-1.9,2.13-6.38,4.32-12.75,6.49-19.12h.02Z" style="fill: #f15b24;"/>
  <path d="m105.52,137.83c1.8-.74,3.76-1.22,5.38-2.25,12.25-7.82,24.4-15.82,36.68-23.59,2.31-1.46,5.11-2.15,7.68-3.19-.02,1.63-.05,3.27-.07,4.9-2.69,3.12-5.53,6.13-8.02,9.4-2.3,3.04-3.24,6.46-3.82,10.44-.57,4-3.97,7.59-6.13,11.36-2.06.14-4.54-.42-6.11.52-8.23,4.98-16.19,10.41-24.33,15.54-2.64,1.67-3.97,3.57-3.72,6.88.12,1.6-1.1,3.3-1.71,4.96,0-4.32-.02-8.64-.03-12.96.29-1.69.54-3.4.86-5.08,1.1-5.65,2.22-11.29,3.34-16.93h0Z" style="fill: #f26326;"/>
  <path d="m6.28,96.81c5.02-10.27,12.11-18.81,20.54-26.56,16.6-15.25,35.81-25.24,57.58-30.57,2.22-.54,4.56-.56,6.85-.82-4.42,2.28-8.84,4.57-13.25,6.85-5.27,3.7-10.54,7.4-15.81,11.09-2.01,2-4.01,4-6.02,6-1.66,1.99-3.32,3.98-4.99,5.97-.99,1.35-1.97,2.7-2.96,4.04l-4.16,6.94c-.93,1.36-1.86,2.72-2.79,4.09-1.39-1.73-2.8-2.29-5.07-1.12-5.15,2.66-10.47,4.97-15.72,7.43-4.73,2.21-9.46,4.43-14.19,6.65h0Z" style="fill: #f15e26;"/>
  <path d="m194.19,35.99c-1.35-.35-2.7-.71-4.04-1.06.51-.78.85-1.77,1.55-2.31,8.32-6.41,16.81-12.61,24.97-19.23,1.76-1.43,2.38-4.28,3.52-6.48.65.02,1.3.03,1.95.05,2.01.66,4.01,1.32,6.02,1.98,4,1.66,7.99,3.33,11.99,4.99.65.31,1.3.62,1.95.93,1.44.94,2.88,1.87,4.32,2.81-1.46,4.85-5.38,7.45-9.22,10.16-6.11,4.31-12.16,8.72-18.23,13.09-3.86-.88-7.72-1.75-11.57-2.63-.35-.08-.7-.16-1.04-.25-4.05-.69-8.11-1.38-12.16-2.06h0Z" style="fill: #faa839;"/>
  <path d="m225.22,142.7c-1.38,1.89-2.36,4.42-4.2,5.57-13.15,8.18-26.63,15.83-39.63,24.23-3.5,2.26-5.99,1.44-9.04.32-2.44-3.19,1.79-5.45,1.19-8.38.95-1.7,2.02-3.35,2.84-5.11,4.32-9.19,11.18-15.52,20.81-18.82,4.68-.87,9.35-1.73,14.03-2.6,4.67,1.59,9.33,3.19,14,4.78h0Z" style="fill: #f68530;"/>
  <path d="m279.02,165.81l-.66-6c.93-3.06,1.87-6.11,2.9-9.49,2.34,2.79,4.55.93,6.81-.89,4.89-3.92,9.73-7.9,14.75-11.64,2.56-1.91,5.48-3.33,8.23-4.98.1,1,.21,2,.31,2.99.26.67.53,1.34.79,2.02-.03,7-.07,13.99-.1,20.99-1.08.3-2.38.32-3.19.96-7.07,5.58-14.15,11.16-21.02,16.99-3.15,2.67-6.15,4.8-10.45,3.05.55-4.67,1.09-9.34,1.64-14h-.01Z" style="fill: #f57c2d;"/>
  <path d="m277.39,179.81c4.3,1.74,7.3-.39,10.45-3.05,6.87-5.83,13.95-11.41,21.02-16.99.81-.64,2.11-.65,3.19-.96.35,2.7.71,5.4,1.08,8.23-.65,2.98-1.39,6.38-2.13,9.77-.22.68-.45,1.37-.67,2.05-.32,1.67-.64,3.34-.96,5-1.26.68-2.65,1.19-3.76,2.07-10.08,7.96-20.11,15.99-30.26,24.08-1.42-1.35-2.46-2.34-3.5-3.33.23-3.32,3-6.32,1.2-9.88.77-2.65,1.53-5.31,2.3-7.96.68-3.01,1.36-6.02,2.05-9.03h0Z" style="fill: #f4762b;"/>
  <path d="m114.26,223.66c0-.3-.07-.59-.23-.85l-3.86-10.93c-.26-.34-.53-.69-.79-1.03-.11-.66-.22-1.31-.33-1.97.94-.23,2.04-.22,2.79-.72,5.97-4.04,11.75-8.37,17.86-12.2,2.53-1.58,5.7-2.14,8.58-3.16,1.04,2.34,2.08,4.68,3.12,7.02.97,2,1.94,4,2.92,6,1.61,3.01,3.22,6.01,4.82,9.02-9.83,2.44-17.07,9.33-25.07,14.84-1.26.87-1.31,3.48-1.93,5.29-2.62-3.77-5.25-7.53-7.87-11.3h-.01Z" style="fill: #f57c2d;"/>
  <path d="m300.04,227.81c-9.48,7.37-18.96,14.74-28.46,22.1-4.17,3.23-8.27,6.59-12.64,9.53-1.17.79-3.22.26-4.87.33,3.3-9.01,6.59-18.03,9.89-27.04,2.21,2.74,4.39,1.95,6.73.08,6.18-4.93,12.36-9.87,18.68-14.62,5.22-3.92,10.63-7.57,15.96-11.35-1.76,6.99-3.52,13.98-5.29,20.96h0Z" style="fill: #f36d29;"/>
  <path d="m40.3,272.75c-.39-.61-.77-1.21-1.16-1.82-.49-3.84,1.7-5.64,4.92-7.02,6.84-2.94,13.65-5.97,20.29-9.33,1.34-.67,1.87-2.94,2.77-4.48,3.65-1.21,4.46,2.66,6.79,3.8,2.81,4.58,8.12,5.32,12.21,7.93,1.03.62,2.07,1.24,3.1,1.86-1.73,1.56-3.21,3.6-5.22,4.58-7.71,3.79-15.65,7.09-23.34,10.93-1.55.77-2.35,3.05-3.5,4.64-5.63-3.69-11.25-7.39-16.88-11.08h.02Z" style="fill: #faa839;"/>
  <path d="m305.33,206.85c-5.33,3.77-10.74,7.42-15.96,11.35-6.32,4.75-12.5,9.69-18.68,14.62-2.34,1.87-4.52,2.66-6.73-.08,2.63-8.68,5.26-17.36,7.89-26.04,1.04.99,2.09,1.98,3.5,3.33,10.15-8.09,20.18-16.12,30.26-24.08,1.11-.87,2.5-1.39,3.76-2.07-1.35,7.66-2.69,15.32-4.04,22.98h0Z" style="fill: #f4722a;"/>
  <path d="m138.27,192.79c-2.88,1.02-6.05,1.58-8.58,3.16-6.1,3.82-11.89,8.16-17.86,12.2-.75.51-1.85.5-2.79.72-.26-.01-.52-.04-.78-.09-.42-1.32-.84-2.65-1.26-3.97-1.22-5-2.44-10-3.66-15.01.54-.32,1.56-.66,1.55-.96-.15-4.41,3.02-6.3,6.09-8.27,5.14-3.29,10.42-6.38,15.37-9.94,2.77-1.99,5.39-2.9,8.63-1.82.13,2,.26,4,.39,6,.97,5.99,1.93,11.99,2.9,17.98h0Z" style="fill: #f4722a;"/>
  <path d="m149.24,92.79l-17.87-4.01c-3.04-.67-6.07-1.34-9.11-2.01-3.36-.93-6.72-1.85-10.08-2.78-.89-.4-1.79-.78-2.67-1.2-5.34-2.51-7.43-9.17-4.39-14,1.66,1.29,3.14,3.29,5,3.75,18.24,4.57,36.56,8.84,54.82,13.3,7.79,1.9,15.52,4.05,23.28,6.08-.04.3,0,.58.12.86-.44,2.01-.87,4.02-1.31,6.03-9.37-2.01-18.7-4.18-28.12-5.93-3.13-.58-6.45-.09-9.69-.09h.02Z" style="fill: #faaa3a;"/>
  <path d="m220.19,6.91c-1.14,2.2-1.76,5.05-3.52,6.48-8.16,6.61-16.65,12.82-24.97,19.23-.7.54-1.04,1.53-1.55,2.31-.33.02-.66.04-.99.06-1.33-.11-2.65-.21-3.98-.32-1.32-2.67-2.65-2.67-3.99,0-22.34-.03-44.67-.05-67.01-.08-.14-3.63,2.58-2.73,4.54-2.74,14.6-.04,29.2-.15,43.79.04,5.86.08,10.96-1.02,15.6-4.94,6.8-5.74,13.82-11.24,21.04-16.43,3.12-2.25,3.38-4.48,2.03-7.54,1.64.2,3.28.41,4.92.61,3.04.41,6.08.82,9.12,1.23.16.27.32.54.48.81.03-.22.06-.44.09-.67,1.47.65,2.94,1.31,4.4,1.96h0Z" style="fill: #fbaf3a;"/>
  <path d="m258.27,74.66c-.25-.32-.49-.65-.74-.97l-6.38-9.87c1.09-.27,2.41-.24,3.23-.87,6.39-4.88,12.78-9.76,18.93-14.93,1.45-1.22,1.97-3.53,2.92-5.34,4.93,7.04,9.86,14.09,14.8,21.13-.33.06-.74,0-.96.19-6.6,5.38-13.1,10.89-19.82,16.12-1.71,1.33-4.08,1.83-6.15,2.71-1.94-2.72-3.89-5.45-5.83-8.17h0Z" style="fill: #f89635;"/>
  <path d="m134.98,168.81c-3.24-1.08-5.86-.17-8.63,1.82-4.94,3.56-10.23,6.65-15.37,9.94-3.08,1.97-6.25,3.86-6.09,8.27,0,.3-1.01.64-1.55.96-.69-5.01-1.38-10.01-2.07-15.02.03-.66.05-1.32.08-1.98.61-1.66,1.83-3.36,1.71-4.96-.25-3.3,1.08-5.21,3.72-6.88,8.14-5.13,16.1-10.56,24.33-15.54,1.57-.95,4.05-.39,6.11-.52-.62,4.97-1.24,9.94-1.86,14.91-.13,3-.26,6-.39,8.99h0Z" style="fill: #f36a28;"/>
  <path d="m311.05,132.81c-2.75,1.64-5.67,3.07-8.23,4.98-5.02,3.74-9.86,7.72-14.75,11.64-2.26,1.81-4.47,3.67-6.81.89-1.03,3.38-1.97,6.44-2.9,9.49-.12-7.67-.24-15.33-.36-23,0-1.65.02-3.3.02-4.96,2.22-.37,4.83-.12,6.58-1.23,3.73-2.36,6.96-5.49,10.48-8.19,4.27-3.27,8.63-6.42,12.95-9.62,1.11,5.67,2.22,11.33,3.33,17-.11,1-.21,2-.32,3h.01Z" style="fill: #f68530;"/>
  <path d="m67.13,250.11c-.9,1.53-1.43,3.8-2.77,4.48-6.64,3.35-13.45,6.39-20.29,9.33-3.23,1.39-5.41,3.18-4.92,7.02-3.3-3.09-6.59-6.18-9.89-9.27-1.73-2.6-3.46-5.2-5.19-7.8,1.62-1.13,3.12-2.53,4.89-3.35,7.07-3.3,14.25-6.33,21.3-9.68,1.25-.59,2.03-2.19,3.03-3.32.32.09.64.19.97.28.95,1.07,1.91,2.15,2.86,3.22,1.29,1.29,2.57,2.58,3.86,3.87,2.05,1.74,4.1,3.48,6.15,5.23h0Z" style="fill: #f99f37;"/>
  <path d="m175.53,246.98c.89.6,1.77,1.21,2.66,1.81,3.63,3.02,7.25,6.04,10.88,9.05.75.63,1.51,1.26,2.26,1.89.49.61.98,1.21,1.48,1.82-2.52,1.21-5.18,2.2-7.54,3.66-7.75,4.77-15.39,9.72-23.08,14.6l-8.07-7.98c-.32,0-.63-.02-.95-.03-.32,0-.63-.05-.94-.13l-2.1-2.76c.69-4.22,3.46-6.64,6.98-8.73,5.51-3.26,10.85-6.82,16.17-10.37.95-.64,1.5-1.88,2.24-2.84h0Z" style="fill: #f89635;"/>
  <path d="m276.23,42.68c-.95,1.81-1.47,4.13-2.92,5.34-6.15,5.17-12.54,10.05-18.93,14.93-.82.63-2.14.6-3.23.87l-4.92-4.12c-.67-.67-1.34-1.34-2-2l-8.19-7.81c8-1.98,13.11-8.34,19.46-12.81,3.31-2.33,6.68-4.45,5.71-9.33,5.01,4.98,10.02,9.96,15.02,14.94h0Z" style="fill: #f99c35;"/>
  <path d="m264.1,82.83c2.07-.88,4.44-1.37,6.15-2.71,6.71-5.23,13.22-10.74,19.82-16.12.22-.18.64-.13.96-.19.37.34.74.67,1.11,1.01l5.05,10.99c.64,1.67,1.28,3.33,1.92,5-.87.4-1.85.66-2.59,1.23-6.07,4.71-12.25,9.3-18.05,14.32-2.53,2.19-5.1,2.66-8.12,2.45-2.08-5.33-4.16-10.65-6.25-15.98h0Z" style="fill: #f78f32;"/>
  <path d="m6.28,96.81c4.73-2.22,9.46-4.43,14.19-6.65,5.25-2.46,10.58-4.77,15.72-7.43,2.28-1.18,3.68-.62,5.07,1.12-.71,1.98-1.41,3.96-2.12,5.93l.02-.03c-.23.34-.47.68-.7,1.02-1.14,3.34-2.29,6.69-3.43,10.03-1.92.32-4,.28-5.73,1.03-6.03,2.64-11.89,5.66-17.91,8.31-3.27,1.44-6.74,2.45-10.12,3.65-.28-.33-.57-.65-.85-.98-.13-.34-.27-.67-.4-1.01.34-.99.68-1.97,1.02-2.96,1.75-4.02,3.49-8.03,5.24-12.05v.02Z" style="fill: #f26326;"/>
  <path d="m188.24,91.93c-7.76-2.03-15.49-4.18-23.28-6.08-18.27-4.46-36.58-8.73-54.82-13.3-1.86-.47-3.34-2.47-5-3.75,1.55-1.42,2.89-3.26,4.7-4.17,2.61-1.3,5.55-1.93,8.35-2.84,4.01-.96,8.03-1.91,12.04-2.87.65,0,1.31-.03,1.96-.04-2.65,1.31-5.21,2.89-7.98,3.86-3.55,1.25-7.26,2.02-10.91,3,.03.59.07,1.17.1,1.76,6.14,1.55,12.27,3.15,18.42,4.65,16.97,4.15,33.93,8.34,50.95,12.27,2.25.52,4.83-.38,7.26-.62-.29,2.65-.57,5.3-.86,7.95-.32.03-.63.08-.94.16v.02Z" style="fill: #fbaf3b;"/>
  <path d="m57.18,283.83c1.15-1.58,1.95-3.86,3.5-4.64,7.68-3.83,15.63-7.14,23.34-10.93,2.01-.99,3.49-3.03,5.22-4.58,3.65.94,7.3,1.88,10.95,2.82.98.1,1.97.21,2.95.31.34.27.69.54,1.03.81.68.11,1.35.21,2.03.32-1.1,1.02-2.03,2.38-3.32,3-9.84,4.69-19.75,9.22-29.62,13.85-1.42.66-2.71,1.59-5.11,3.03,2.66,1.37,4.39,2.08,5.92,3.1,1.79,1.19,3.4,2.65,5.09,3.99-3.88.09-6.98-1.79-9.96-3.95l-6-3c-2-1.38-4-2.76-6-4.15l-.02.02Z" style="fill: #fbaf3a;"/>
  <path d="m35.15,193.84v2.88c-.16.43-.32.86-.49,1.3l.16.38c.5,2.79,1,5.59,1.5,8.38-3.01.66-6.21.87-8.98,2.07-7.22,3.12-14.25,6.68-21.36,10.06-1.21-3.7-2.43-7.4-3.64-11.1,3.4-5.22,8.98-7.43,14.31-9.59,5.41-2.19,10.3-6.31,16.72-5.47l1.79,1.11v-.02h0Z" style="fill: #f78b31;"/>
  <path d="m1.27,113.8c3.38-1.2,6.85-2.2,10.12-3.65,6.02-2.66,11.88-5.68,17.91-8.31,1.73-.76,3.81-.71,5.73-1.03-.27,3.01-.53,6.01-.8,9.02-.28.66-.56,1.32-.85,1.99-.03.97-.06,1.94-.09,2.9-9.3,3.85-18.62,7.63-27.87,11.61-1.82.78-3.33,2.3-4.98,3.48-.14-2.66-.28-5.33-.42-7.99.18-2.34.35-4.68.53-7.02.24-.33.48-.66.72-.99h0Z" style="fill: #f36a28;"/>
  <path d="m.45,155.8v-13c2.51-1.64,4.89-3.52,7.55-4.86,5.87-2.96,11.81-5.79,17.85-8.37,2.33-1,5-1.2,7.52-1.77v14c-2.07.34-4.31.29-6.19,1.08-5.43,2.3-10.74,4.9-16.06,7.47-3.59,1.74-7.12,3.62-10.67,5.44h0Z" style="fill: #f4722a;"/>
  <path d="m175.53,246.98c-.74.96-1.29,2.2-2.24,2.84-5.33,3.56-10.66,7.11-16.17,10.37-3.52,2.08-6.29,4.51-6.98,8.73-3.67-3.69-7.35-7.38-11.02-11.07,8.13-5.55,16.23-11.16,24.43-16.6,1.29-.85,3.07-.97,4.62-1.43.68.64,1.36,1.29,2.04,1.93l.83,1.04c1.5,1.4,3,2.8,4.5,4.2h0Z" style="fill: #f78f32;"/>
  <path d="m182.3,119.84l-2.4,13.88c-1.44,1.31-2.76,2.81-4.36,3.88-3.87,2.58-7.9,1.64-12.38-2.66-.93-2.47-1.83-4.95-2.79-7.41-1.02-2.61-2.09-5.21-3.14-7.81-.03-.31-.1-.61-.22-.9-.17-1.33-.35-2.66-.52-3.99,2.25.28,4.53.42,6.74.88,6.37,1.31,12.71,2.75,19.06,4.14h.01Z" style="fill: #f89434;"/>
  <path d="m33.37,192.75c-6.43-.84-11.31,3.28-16.72,5.47-5.33,2.16-10.91,4.36-14.31,9.59-.46-4.29-.93-8.57-1.39-12.86.42-1.04.83-2.09,1.25-3.13,3.87-1.77,7.69-3.65,11.63-5.27,6.48-2.67,13.03-5.16,19.55-7.73.25,2.67.5,5.33.75,8v3.97c-.25.66-.5,1.32-.75,1.97h0Z" style="fill: #f68530;"/>
  <path d="m33.05,153.52c.11,4.43.21,8.86.32,13.29-1.45.19-3.04.06-4.33.63-7.8,3.44-15.56,6.97-23.25,10.64-1.93.92-3.57,2.46-5.34,3.72v-13c2.67-1.71,5.23-3.63,8.04-5.07,4.69-2.41,9.48-4.65,14.33-6.7,3.31-1.4,6.81-2.36,10.23-3.51h0Z" style="fill: #f57c2d;"/>
  <path d="m33.37,127.81c-2.52.57-5.19.77-7.52,1.77-6.04,2.59-11.98,5.41-17.85,8.37-2.66,1.34-5.04,3.22-7.55,4.86v-13c1.65-1.18,3.16-2.7,4.98-3.48,9.24-3.97,18.57-7.76,27.87-11.61l-.03-.02c.04.58.08,1.16.11,1.73v11.38h-.01Z" style="fill: #f36d29;"/>
  <path d="m168.17,239.82c-1.55.46-3.33.58-4.62,1.43-8.2,5.44-16.3,11.05-24.43,16.6-.26-.03-.53-.06-.79-.09-2.07-2.97-4.14-5.94-6.21-8.92,1.73-1.84,3.21-4.06,5.24-5.46,6.9-4.71,14-9.13,21.02-13.67,1.27,1.03,2.53,2.06,3.8,3.09,2,2.33,3.99,4.67,5.99,7v.02Z" style="fill: #f78b31;"/>
  <path d="m33.05,153.52c-3.42,1.16-6.92,2.11-10.23,3.51-4.86,2.05-9.65,4.29-14.33,6.7-2.81,1.44-5.37,3.36-8.04,5.07v-13c3.55-1.82,7.08-3.7,10.67-5.44,5.32-2.57,10.63-5.17,16.06-7.47,1.88-.8,4.12-.75,6.19-1.08-.11,3.9-.21,7.8-.32,11.71h0Z" style="fill: #f4762b;"/>
  <path d="m.45,181.8c1.77-1.26,3.41-2.79,5.34-3.72,7.69-3.67,15.45-7.2,23.25-10.64,1.28-.57,2.88-.44,4.33-.63v12c-6.52,2.57-13.07,5.06-19.55,7.73-3.93,1.62-7.75,3.5-11.63,5.27-.58-.33-1.17-.67-1.75-1,0-3,0-6.01.01-9.01h0Z" style="fill: #f5802e;"/>
  <path d="m13.22,237.74c-.74-1.64-1.48-3.29-2.22-4.93.12-.31.13-.62.02-.93,7.32-3.97,14.57-8.07,22-11.82,2.43-1.23,5.32-1.53,8-2.25,1.94,3.62,3.89,7.23,5.83,10.85-2.07.47-4.26.66-6.19,1.46-4.88,2.04-9.74,4.16-14.41,6.63-3.25,1.72-6.17,4.07-9.24,6.14l-3.79-5.15h0Z" style="fill: #f89434;"/>
  <path d="m86.15,296.95c.85-.29,1.85-1.02,2.53-.8,11.74,3.89,23.89,3.56,36,3.71,1.53.02,3.05.7,4.58,1.07-.04.26-.07.52-.1.78-6.32.09-12.64.19-18.96.28h-4c-2-.33-4-.66-6-.99-1.34-.34-2.69-.68-4.03-1.03-3.34-1-6.68-2.01-10.01-3.01h-.01Z" style="fill: #fbaf3a;"/>
  <path d="m141.99,56.33c2.09-.76,4.18-1.51,6.27-2.27,2.64-.37,5.28-.73,7.93-1.1-2.88,3.11-10.5,4.92-14.2,3.37h0Z" style="fill: #fbaf3b;"/>
  <path d="m5.01,87.69v-2.89l1.25-3.98c.91-1.7,1.82-3.4,2.74-5.11.25.21.67.39.72.65.6,2.71-2.33,9.66-4.72,11.32h.01Z" style="fill: #fbaf3a;"/>
  <path d="m110.19,35.98l-7,1.01c-.67-.11-1.33-.23-2-.34,3.21-3.17,8.29-3.64,10.99-1.01-.66.11-1.33.22-1.99.34Z" style="fill: #fbaf3a;"/>
  <path d="m199.25,2.68c-2.67,1.89-5.11,2.02-7.11-.98,1.25-.57,2.49-1.13,3.74-1.7l.12.12c1.08.85,2.17,1.7,3.25,2.56Z" style="fill: #fbaf3a;"/>
  <path d="m69.2,12.66c-1.1,4.64-4.75,4.16-8.2,4.08,2.73-1.36,5.47-2.72,8.2-4.08Z" style="fill: #fbaf3a;"/>
  <path d="m177.13,47.7c.04-.26.07-.53.09-.79,2.32-.31,4.64-.63,6.96-.94-1.88,2.51-4.13,3.48-7.06,1.73h.01Z" style="fill: #fbaf3b;"/>
  <path d="m.95,194.95c-.25-.03-.5-.07-.74-.14.08-1.33.15-2.66.23-3.99.58.33,1.17.67,1.75,1-.42,1.04-.83,2.09-1.25,3.13h0Z" style="fill: #f57c2d;"/>
  <path d="m112.13,268.68c.69-.35,1.37-.7,2.06-1.05.35.35.71.7,1.06,1.04h-3.12Z" style="fill: #fbaf3a;"/>
  <path d="m96.24,3.96c-.7.24-1.4.49-2.11.73.7-.24,1.4-.49,2.11-.73Z" style="fill: #fbaf3a;"/>
  <path d="m310.33,178.87c.22-.68.45-1.37.67-2.05-.22.68-.45,1.37-.67,2.05Z" style="fill: #f4722a;"/>
  <path d="m161.21,50.87h1.98c-.69.26-1.37.54-2.06.82.05-.27.07-.55.08-.82Z" style="fill: #fbaf3b;"/>
  <path d="m88.19,5.96c-.68.24-1.37.49-2.05.73.68-.24,1.37-.49,2.05-.73Z" style="fill: #fbaf3a;"/>
  <path d="m33.26,114.7c.33.42.65.84.98,1.26-.27.19-.56.34-.86.47-.04-.58-.08-1.16-.11-1.73h0Z" style="fill: #f36a28;"/>
  <path d="m171.04,242.79l-.83-1.04.83,1.04Z" style="fill: #f78b31;"/>
  <path d="m124.22,267.91c.36.29.73.57,1.09.86h-1.26c.08-.28.14-.57.16-.86h0Z" style="fill: #fbaf3a;"/>
  <path d="m137.06,294.83c.11.28.14.57.09.87-.31.07-.61.16-.92.24.28-.37.55-.74.83-1.11Z" style="fill: #fbaf3a;"/>
  <path d="m9.93,73.72c1.65-3.35,3.3-6.7,4.95-10.05.34.49,1.08,1.23.95,1.42-1.9,2.92-3.92,5.77-5.9,8.64h0Z" style="fill: #fbaf3a;"/>
  <path d="m26.05,46.71c1.03-1.35,2.05-2.7,3.08-4.05.11,2.21.41,4.58-3.08,4.05Z" style="fill: #fbaf3a;"/>
  <path d="m46,26.74c1.37-1.02,2.74-2.03,4.1-3.05.49,3.51-1.89,3.17-4.1,3.05Z" style="fill: #fbaf3a;"/>
  <path d="m15.92,61.71c.74-1.35,1.48-2.69,2.22-4.04-.17,1.66.88,3.99-2.22,4.04Z" style="fill: #fbaf3a;"/>
  <path d="m74.11,10.64c1.01-.32,2.02-.64,3.03-.95-.37,2.37-1.33,2.83-3.03.95Z" style="fill: #fbaf3a;"/>
  <path d="m55.06,20.76c1-.76,2.01-1.52,3.01-2.28-1,.76-2.01,1.52-3.01,2.28Z" style="fill: #fbaf3a;"/>
  <path d="m23.82,49.69c.76-1,1.51-2.01,2.27-3.01-.76,1-1.51,2.01-2.27,3.01Z" style="fill: #fbaf3a;"/>
  <path d="m41.03,30.75l3.04-2.3-3.04,2.3Z" style="fill: #fbaf3a;"/>
  <path d="m20.92,53.71c.73-1.04,1.46-2.09,2.19-3.13-.73,1.04-1.46,2.09-2.19,3.13Z" style="fill: #fbaf3a;"/>
  <path d="m52.97,21.74c.4-.26.8-.52,1.2-.78-.4.26-.8.52-1.2.78Z" style="fill: #fbaf3a;"/>
  <path d="m4.36,88.78c.25-.38.49-.75.74-1.13-.25.38-.49.75-.74,1.13Z" style="fill: #fbaf3a;"/>
  <path d="m50.07,23.75c.37-.26.73-.53,1.1-.79-.37.26-.73.53-1.1.79Z" style="fill: #fbaf3a;"/>
  <path d="m208.09,315.77c-3.32-2.61-6.63-5.21-9.95-7.82,1.04-1.72,1.74-3.88,3.2-5.08,2.93-2.41,6.31-4.27,9.46-6.41,4.62-3.14,9.2-6.32,13.8-9.49,2.15,1.6,4.3,3.21,6.45,4.81.37.27.73.55,1.1.82,2.01,1.42,4.02,2.83,6.02,4.25-4.57,13.62-13.29,19.1-30.09,18.91h.01Z" style="fill: #fbaf3b;"/>
  <path d="m195.32,50.46c.35,1.12.7,2.23,1.05,3.35v2.06l-.32-.11c-3.83-1.28-.18-3.58-.72-5.3h0Z" style="fill: #fbaf3b;"/>
  <path d="m195.04,61.81c.05.66.09,1.31.14,1.97-.29.03-.57.05-.86.08.24-.68.48-1.37.72-2.05h0Z" style="fill: #fbaf3b;"/>
  <path d="m134.06,58.52l2.13-.67c-.28,1.59-.76,2.54-2.13.67Z" style="fill: #fbaf3b;"/>
  <path d="m173.14,48.69c.68-.24,1.37-.48,2.05-.73-.68.24-1.37.48-2.05.73Z" style="fill: #fbaf3b;"/>
  <path d="m195.17,64.86c-.31.36-.62.71-.93,1.07v-1.26c.3.08.61.14.92.2h0Z" style="fill: #fbaf3b;"/>
  <path d="m192.21,46.94c.38.28.75.55,1.13.83-.38-.28-.75-.55-1.13-.83Z" style="fill: #fbaf3b;"/>
  <path d="m190.16,45.96c.41.26.81.53,1.22.79-.41-.26-.81-.53-1.22-.79Z" style="fill: #fbaf3b;"/>
  <path d="m196.18,57.81c-.31.4-.62.8-.93,1.19.31-.4.62-.8.93-1.19Z" style="fill: #fbaf3b;"/>
  <path d="m191.18,80.81c-.31.4-.62.8-.93,1.2.31-.4.62-.8.93-1.2Z" style="fill: #fbaf3b;"/>
  <path d="m193.06,71.83c-.27.39-.54.77-.81,1.16.27-.39.54-.77.81-1.16Z" style="fill: #fbaf3b;"/>
  <path d="m194.08,66.83c-.27.4-.55.79-.82,1.19.27-.4.55-.79.82-1.19Z" style="fill: #fbaf3b;"/>
  <path d="m85.19,296.65c-1.66-.33-3.33-.67-4.99-1,1.64-1.97,3.1-1.68,4.99,1Z" style="fill: #fbaf3a;"/>
  <path d="m126.21,268.92c.4.27.79.55,1.19.82-.4-.27-.79-.55-1.19-.82Z" style="fill: #fbaf3a;"/>
  <path d="m140.28,289.83c-.35.05-.69.09-1.04.14.32-.39.64-.78.96-1.17.03.34.05.68.08,1.03h0Z" style="fill: #fbaf3a;"/>
  <path d="m241.32,289.81c.56-1.36,1.12-2.72,1.68-4.08,2.05,2.44.32,3.31-1.68,4.08Z" style="fill: #f26326;"/>
  <path d="m156.49,114.82c-.44-.37-.88-.75-1.31-1.12.02-1.63.05-3.27.07-4.9l-1.04-6.99c4.06.53,8.14.94,12.18,1.61,6.31,1.05,12.59,2.27,18.88,3.41-.99,4.34-1.98,8.67-2.96,13.01-6.35-1.39-12.7-2.83-19.06-4.14-2.21-.46-4.49-.59-6.74-.88h-.02Z" style="fill: #f99f37;"/>
  <path d="m185.26,106.83c-6.29-1.15-12.57-2.37-18.88-3.41-4.04-.67-8.12-1.08-12.18-1.61-1.65-3.01-3.31-6.01-4.96-9.02,3.23,0,6.56-.5,9.69.09,9.41,1.75,18.75,3.93,28.12,5.93-.59,2.67-1.19,5.34-1.78,8.02h0Z" style="fill: #faa839;"/>
  <path d="m236.03,49.89c-5.69-2.99-11.38-5.98-17.07-8.96,6.07-4.37,12.11-8.78,18.23-13.09,3.85-2.71,7.76-5.31,9.22-10.16,1.22.71,2.45,1.43,3.67,2.14l2.11,1.04.27.25c.58.46,1.15.92,1.73,1.38,2.34,1.75,4.67,3.5,7.01,5.26.97,4.88-2.4,7-5.71,9.33-6.36,4.48-11.46,10.83-19.46,12.81h0Z" style="fill: #f99f37;"/>
  <path d="m132.11,248.85c-1.56-1.41-3.13-2.82-4.69-4.23-1.76-3.22-3.52-6.43-5.28-9.65.61-1.81.67-4.42,1.93-5.29,8-5.52,15.24-12.41,25.07-14.84.48.11,1.25.06,1.41.34,2.66,4.83,5.24,9.7,7.84,14.56-7.02,4.53-14.12,8.95-21.02,13.67-2.04,1.39-3.51,3.61-5.24,5.46l-.02-.02Z" style="fill: #f68631;"/>
  <path d="m110.17,211.88c-.26-.34-.53-.69-.79-1.03.26.34.53.69.79,1.03Z" style="fill: #f4722a;"/>
  <path d="m182.19,34.98l-.99-.32c1.33-2.66,2.66-2.66,3.99,0-.33.11-.66.21-.99.32h-2.01Z" style="fill: #faa839;"/>
  <path d="m305.2,97.78c.95,5.01,1.9,10.02,2.85,15.03-4.32,3.2-8.68,6.35-12.95,9.62-3.52,2.7-6.76,5.83-10.48,8.19-1.75,1.11-4.36.86-6.58,1.23-.83-5.35-1.65-10.69-2.48-16.04,2.29-.7,4.79-1.04,6.81-2.2,2.54-1.46,4.66-3.64,7-5.45,4.88-3.78,9.79-7.53,14.69-11.3l.33-.1c.27.34.54.68.82,1.02h0Z" style="fill: #f68631;"/>
  <path d="m24.07,253.86c-2.35-3.66-4.7-7.31-7.05-10.97,3.07-2.07,5.99-4.42,9.24-6.14,4.67-2.47,9.53-4.59,14.41-6.63,1.93-.81,4.12-.99,6.19-1.46,2.15,2.95,4.29,5.9,6.44,8.85-1,1.13-1.78,2.72-3.03,3.32-7.04,3.34-14.23,6.38-21.3,9.68-1.77.82-3.27,2.22-4.89,3.35h-.01Z" style="fill: #f89635;"/>
  <path d="m181.14,294.93c-6.32-5.04-12.63-10.08-18.95-15.13,7.68-4.88,15.33-9.82,23.08-14.6,2.37-1.46,5.02-2.45,7.54-3.66l14.57,11.28c.25.22.51.45.76.67.37.4.73.79,1.1,1.19-2.46,1.59-4.99,3.07-7.35,4.8-6.96,5.09-13.84,10.28-20.76,15.44h.01Z" style="fill: #f99f37;"/>
  <path d="m181.14,294.93c6.91-5.15,13.8-10.34,20.76-15.44,2.36-1.73,4.9-3.21,7.35-4.8,5.12,4.09,10.24,8.18,15.36,12.28-4.6,3.16-9.18,6.35-13.8,9.49-3.15,2.14-6.53,4-9.46,6.41-1.47,1.21-2.16,3.36-3.2,5.08-5.67-4.34-11.33-8.68-17-13.01h-.01Z" style="fill: #faa839;"/>
  <path d="m304.06,96.86c-4.9,3.76-9.81,7.51-14.69,11.3-2.34,1.81-4.46,3.99-7,5.45-2.02,1.17-4.52,1.5-6.81,2.2-.55-2.14-1-4.32-1.67-6.43-1.11-3.55-2.36-7.05-3.54-10.58,3.02.21,5.58-.26,8.12-2.45,5.8-5.02,11.98-9.61,18.05-14.32.74-.57,1.72-.83,2.59-1.23l4.95,16.05h0Z" style="fill: #f78b31;"/>
  <path d="m.55,114.79l-.13-1.97c.28.33.57.65.85.98-.24.33-.48.66-.72.99Z" style="fill: #f78b31;"/>
  <path d="m11.02,231.88c-1.68-4.32-3.36-8.65-5.04-12.97,7.11-3.38,14.14-6.94,21.36-10.06,2.77-1.2,5.97-1.41,8.98-2.07,1.57,3.68,3.14,7.36,4.71,11.03-2.68.72-5.58,1.02-8,2.25-7.43,3.75-14.68,7.86-22,11.82h0Z" style="fill: #f78f32;"/>
</svg>